<svg id="Layer_1" data-name="Layer 1" xmlns="http://www.w3.org/2000/svg" viewBox="0 0 154.26 56.7" preserveAspectRatio="xMinYMin meet"><defs><style>.cls-1{fill:none;}.cls-2{fill:#7b848f;}.cls-3{fill:#fff;}</style></defs><title>ssi-logo-optimeret</title><path class="cls-1" d="M101.46,25.29h0a2.5,2.5,0,0,0-.48-1.74c-0.49-.48-1.41-0.48-2.57-0.48H95.59v4.34h3.07A3.46,3.46,0,0,0,101,27,2.45,2.45,0,0,0,101.46,25.29Z" transform="translate(0 0)"/><polygon class="cls-1" points="95.74 1.55 95.31 1.55 93.13 7.92 97.92 7.92 95.74 1.55"/><path class="cls-2" d="M55.56,0H1.13A1.13,1.13,0,0,0,0,1.13V55.56H0A1.13,1.13,0,0,0,1.13,56.7H55.56a1.14,1.14,0,0,0,1.14-1.14V1.13h0A1.13,1.13,0,0,0,55.56,0ZM37.38,11h2.25v0.69H37.38V11Zm-6.16,0h2.25v0.69H31.22V11Zm-8,0h2.25v0.69H23.23V11Zm-6.17,0h2.25v0.69H17.06V11ZM32.67,46.47H24V45.81h8.65v0.66ZM52.84,29h-2V43.21h0.6v1.56H31.81V44.26H24.89v0.52H5.27V43.22H5.88V29h-2V28.23L4,28.15A5.89,5.89,0,0,0,7.42,23H6.28V22.28l9.3-9h1.48v-1h2.25v1h3.92v-1h2.25v1h5.74v-1h2.25v1h3.91v-1h2.25v1H41.1l9.3,9V23H49.26a5.89,5.89,0,0,0,3.45,5.14l0.13,0.08V29Z" transform="translate(0 0)"/><path class="cls-2" d="M37.38,14.75v-1H33.47v1H31.22v-1H25.48v1H23.23v-1H19.31v1H17.06v-1H15.82l-9,8.64H8V22.7a6.35,6.35,0,0,1-3.49,5.73H22.53v-1c1.77-1,2.41-2.72,2.41-5h1a2.45,2.45,0,0,1,4.9,0h1c0,2.23.65,4,2.41,5v1h18a6.35,6.35,0,0,1-3.49-5.73V22.44h1.14l-9-8.64H39.63v1H37.38ZM15.24,27.39h-1V26.61h1v0.78Zm0-1.3h-1V25.31h1v0.78Zm1.55,1.3h-1V26.61h1v0.78Zm0-1.3h-1V25.31h1v0.78Zm0.49-1.3-1.78-.6-1.78.6V24.34l1.71-.58H15.5l1.78,0.58v0.45Zm6.54-1.86H9.06V22.44H23.82v0.49ZM41,27.39h-1V26.61h1v0.78Zm0-1.3h-1V25.31h1v0.78Zm1.55,1.3h-1V26.61h1v0.78Zm0-1.3h-1V25.31h1v0.78ZM43,24.79l-1.78-.6-1.78.6V24.34l1.78-.58h0.07L43,24.34v0.45Zm4.65-2.35v0.49H32.88V22.44H47.64Z" transform="translate(0 0)"/><rect class="cls-3" x="33.47" y="13.28" width="3.91" height="0.52"/><rect class="cls-3" x="19.31" y="13.28" width="3.92" height="0.52"/><path class="cls-3" d="M49.26,23H50.4V22.28l-9.3-9H39.63V13.8h1.29l9,8.64H48.78V22.7a6.35,6.35,0,0,0,3.49,5.73h-18v0.25H50.83V29h2V28.23l-0.13-.08A5.89,5.89,0,0,1,49.26,23Z" transform="translate(0 0)"/><path class="cls-3" d="M22.53,28.69V28.43H4.46A6.35,6.35,0,0,0,8,22.7V22.44H6.82l9-8.64h1.24V13.28H15.58l-9.3,9V23H7.42A5.89,5.89,0,0,1,4,28.15l-0.13.08V29h2v-0.3H22.53Z" transform="translate(0 0)"/><rect class="cls-3" x="25.48" y="13.28" width="5.74" height="0.52"/><path class="cls-3" d="M5.88,43.22H5.27v1.56H24.89V44.26h6.92v0.52H51.43V43.22h-0.6V29h-45V43.22ZM28.1,43.69H27V40.26h1v3.43Zm1.54,0h-1V40.26h1v3.43Zm0-3.94H27v-1h2.59v1Zm19-10.29H49.2V42.17H48.68V29.46Zm-2.08,0h1v1h-1v-1Zm0,1.55h1v1.92h-1V31Zm0,3.73h1v1.82h-1V34.74Zm0,2.34h1V38.9h-1V37.08Zm0,3.64h1v1.45h-1V40.72ZM45,29.46h1v1H45v-1ZM45,31h1v1.92H45V31Zm0,3.73h1v1.82H45V34.74Zm0,2.34h1V38.9H45V37.08Zm0,3.64h1v1.45H45V40.72ZM41.46,29.46h1v1h-1v-1Zm0,1.55h1v1.92h-1V31Zm0,3.73h1v1.82h-1V34.74Zm0,2.34h1V38.9h-1V37.08Zm0,3.64h1v1.45h-1V40.72ZM39.91,29.46h1v1h-1v-1Zm0,1.55h1v1.92h-1V31Zm0,3.73h1v1.82h-1V34.74Zm0,2.34h1V38.9h-1V37.08Zm0,3.64h1v1.45h-1V40.72ZM36.32,29.46h1v1h-1v-1Zm0,1.55h1v1.92h-1V31Zm0,3.73h1v1.82h-1V34.74Zm0,2.34h1V38.9h-1V37.08Zm0,3.64h1v1.45h-1V40.72ZM34.77,29.46h1v1h-1v-1Zm0,1.55h1v1.92h-1V31Zm0,3.73h1v1.82h-1V34.74Zm0,2.34h1V38.9h-1V37.08Zm0,3.64h1v1.45h-1V40.72ZM33.21,29.46h0.52V42.17H33.21V29.46Zm-7.11,0h4.5v0.48H26.1V29.46Zm0,1h4.5V31H26.1V30.49ZM29.64,32v2.08h-1V32h1ZM28.1,32v2.08H27V32h1Zm-1.17,3.42a3.12,3.12,0,0,1,4.2,1.36h-0.6a2.59,2.59,0,0,0-4.36,0h-0.6A3.12,3.12,0,0,1,26.93,35.42Zm2.9,1.38h-3A2,2,0,0,1,29.83,36.8ZM23,29.46h0.52V42.17H23V29.46Zm-2.08,0h1v1h-1v-1Zm0,1.55h1v1.92h-1V31Zm0,3.73h1v1.82h-1V34.74Zm0,2.34h1V38.9h-1V37.08Zm0,3.64h1v1.45h-1V40.72ZM19.33,29.46h1v1h-1v-1Zm0,1.55h1v1.92h-1V31Zm0,3.73h1v1.82h-1V34.74Zm0,2.34h1V38.9h-1V37.08Zm0,3.64h1v1.45h-1V40.72ZM15.75,29.46h1v1h-1v-1Zm0,1.55h1v1.92h-1V31Zm0,3.73h1v1.82h-1V34.74Zm0,2.34h1V38.9h-1V37.08Zm0,3.64h1v1.45h-1V40.72ZM14.2,29.46h1v1h-1v-1Zm0,1.55h1v1.92h-1V31Zm0,3.73h1v1.82h-1V34.74Zm0,2.34h1V38.9h-1V37.08Zm0,3.64h1v1.45h-1V40.72ZM10.62,29.46h1v1h-1v-1Zm0,1.55h1v1.92h-1V31Zm0,3.73h1v1.82h-1V34.74Zm0,2.34h1V38.9h-1V37.08Zm0,3.64h1v1.45h-1V40.72ZM9.06,29.46h1v1h-1v-1Zm0,1.55h1v1.92h-1V31Zm0,3.73h1v1.82h-1V34.74Zm0,2.34h1V38.9h-1V37.08Zm0,3.64h1v1.45h-1V40.72ZM7.5,29.46H8V42.17H7.5V29.46ZM6.92,43.21H26V37.67H30.7v5.54H49.8v0.48H30.18v-5.5H26.54v5.5H6.92V43.21Z" transform="translate(0 0)"/><path class="cls-3" d="M31.84,22.44h-1a2.45,2.45,0,0,0-4.9,0h-1c0,2.23-.64,3.91-2.41,5v1h1V28h9.72v0.48h1v-1C32.49,26.39,31.84,24.67,31.84,22.44Zm-3.76,4.23a1.64,1.64,0,0,1-1.36-1.36h1.36v1.36Zm0-1.88H26.72a1.64,1.64,0,0,1,1.36-1.36v1.36Zm0.54,1.88V25.31H30A1.64,1.64,0,0,1,28.62,26.67Zm0-1.88V23.43A1.64,1.64,0,0,1,30,24.79H28.62Z" transform="translate(0 0)"/><polygon class="cls-3" points="34.25 28.68 34.25 28.43 33.21 28.43 23.49 28.43 22.53 28.43 22.53 28.69 5.88 28.69 5.88 28.99 50.83 28.99 50.83 28.68 34.25 28.68"/><path class="cls-2" d="M26.83,36.8h3A2,2,0,0,0,26.83,36.8Z" transform="translate(0 0)"/><path class="cls-2" d="M28.35,35.59a2.6,2.6,0,0,1,2.18,1.19h0.6a3.12,3.12,0,0,0-5.56,0h0.6A2.6,2.6,0,0,1,28.35,35.59Z" transform="translate(0 0)"/><rect class="cls-3" x="24.02" y="45.81" width="8.65" height="0.66"/><rect class="cls-2" x="23.49" y="27.95" width="9.72" height="0.48"/><rect class="cls-2" x="26.1" y="29.46" width="4.5" height="0.48"/><rect class="cls-2" x="26.1" y="30.49" width="4.5" height="0.48"/><path class="cls-2" d="M26.72,24.79h1.36V23.43A1.64,1.64,0,0,0,26.72,24.79Z" transform="translate(0 0)"/><path class="cls-2" d="M28.62,23.43v1.36H30A1.64,1.64,0,0,0,28.62,23.43Z" transform="translate(0 0)"/><path class="cls-2" d="M28.08,26.67V25.31H26.72A1.64,1.64,0,0,0,28.08,26.67Z" transform="translate(0 0)"/><path class="cls-2" d="M28.62,26.67A1.64,1.64,0,0,0,30,25.31H28.62v1.36Z" transform="translate(0 0)"/><rect class="cls-2" x="27.05" y="32" width="1.05" height="2.08"/><rect class="cls-2" x="28.62" y="32" width="1.02" height="2.08"/><rect class="cls-3" x="17.06" y="12.33" width="2.25" height="0.95"/><rect class="cls-3" x="17.06" y="13.8" width="2.25" height="0.95"/><rect class="cls-3" x="17.06" y="13.28" width="2.25" height="0.52"/><rect class="cls-3" x="17.06" y="10.95" width="2.25" height="0.69"/><rect class="cls-3" x="23.23" y="12.33" width="2.25" height="0.95"/><rect class="cls-3" x="23.23" y="13.8" width="2.25" height="0.95"/><rect class="cls-3" x="23.23" y="13.28" width="2.25" height="0.52"/><rect class="cls-3" x="23.23" y="10.95" width="2.25" height="0.69"/><rect class="cls-3" x="31.22" y="12.33" width="2.25" height="0.95"/><rect class="cls-3" x="31.22" y="13.8" width="2.25" height="0.95"/><rect class="cls-3" x="31.22" y="13.28" width="2.25" height="0.52"/><rect class="cls-3" x="31.22" y="10.95" width="2.25" height="0.69"/><rect class="cls-3" x="37.38" y="12.33" width="2.25" height="0.95"/><rect class="cls-3" x="37.38" y="13.8" width="2.25" height="0.95"/><rect class="cls-3" x="37.38" y="13.28" width="2.25" height="0.52"/><rect class="cls-3" x="37.38" y="10.95" width="2.25" height="0.69"/><rect class="cls-3" x="9.06" y="22.44" width="14.76" height="0.49"/><rect class="cls-3" x="32.88" y="22.44" width="14.76" height="0.49"/><rect class="cls-2" x="7.5" y="29.46" width="0.52" height="12.71"/><rect class="cls-2" x="22.97" y="29.46" width="0.52" height="12.71"/><rect class="cls-2" x="9.06" y="29.46" width="1.04" height="1.02"/><rect class="cls-2" x="10.62" y="29.46" width="1.04" height="1.02"/><rect class="cls-2" x="10.62" y="31.01" width="1.04" height="1.92"/><rect class="cls-2" x="9.06" y="31.01" width="1.04" height="1.92"/><rect class="cls-2" x="10.62" y="40.72" width="1.04" height="1.45"/><rect class="cls-2" x="9.06" y="40.72" width="1.04" height="1.45"/><rect class="cls-2" x="9.06" y="34.74" width="1.04" height="1.82"/><rect class="cls-2" x="10.62" y="34.74" width="1.04" height="1.82"/><rect class="cls-2" x="9.06" y="37.08" width="1.04" height="1.82"/><rect class="cls-2" x="10.62" y="37.08" width="1.04" height="1.82"/><rect class="cls-2" x="14.2" y="29.46" width="1.04" height="1.02"/><rect class="cls-2" x="15.75" y="29.46" width="1.04" height="1.02"/><rect class="cls-2" x="15.75" y="31.01" width="1.04" height="1.92"/><rect class="cls-2" x="14.2" y="31.01" width="1.04" height="1.92"/><rect class="cls-2" x="15.75" y="40.72" width="1.04" height="1.45"/><rect class="cls-2" x="14.2" y="40.72" width="1.04" height="1.45"/><rect class="cls-2" x="14.2" y="34.74" width="1.04" height="1.82"/><rect class="cls-2" x="15.75" y="34.74" width="1.04" height="1.82"/><rect class="cls-2" x="14.2" y="37.08" width="1.04" height="1.82"/><rect class="cls-2" x="15.75" y="37.08" width="1.04" height="1.82"/><rect class="cls-2" x="19.33" y="29.46" width="1.04" height="1.02"/><rect class="cls-2" x="20.89" y="29.46" width="1.04" height="1.02"/><rect class="cls-2" x="20.89" y="31.01" width="1.04" height="1.92"/><rect class="cls-2" x="19.33" y="31.01" width="1.04" height="1.92"/><rect class="cls-2" x="20.89" y="40.72" width="1.04" height="1.45"/><rect class="cls-2" x="19.33" y="40.72" width="1.04" height="1.45"/><rect class="cls-2" x="19.33" y="34.74" width="1.04" height="1.82"/><rect class="cls-2" x="20.89" y="34.74" width="1.04" height="1.82"/><rect class="cls-2" x="19.33" y="37.08" width="1.04" height="1.82"/><rect class="cls-2" x="20.89" y="37.08" width="1.04" height="1.82"/><polygon class="cls-2" points="26.54 38.19 30.18 38.19 30.18 43.69 49.8 43.69 49.8 43.21 30.7 43.21 30.7 37.67 30.44 37.67 30.44 37.67 26.02 37.67 26.02 43.21 6.92 43.21 6.92 43.69 26.54 43.69 26.54 38.19"/><rect class="cls-2" x="28.62" y="40.26" width="1.02" height="3.43"/><rect class="cls-2" x="27.05" y="38.71" width="2.59" height="1.04"/><rect class="cls-2" x="27.05" y="40.26" width="1.05" height="3.43"/><rect class="cls-3" x="15.75" y="25.31" width="1.04" height="0.78"/><rect class="cls-3" x="14.2" y="25.31" width="1.04" height="0.78"/><rect class="cls-3" x="14.2" y="26.61" width="1.04" height="0.78"/><rect class="cls-3" x="15.75" y="26.61" width="1.04" height="0.78"/><polygon class="cls-3" points="15.43 23.76 13.72 24.34 13.72 24.79 15.5 24.19 17.28 24.79 17.28 24.34 15.5 23.76 15.43 23.76"/><rect class="cls-2" x="48.68" y="29.46" width="0.52" height="12.71"/><rect class="cls-2" x="33.21" y="29.46" width="0.52" height="12.71"/><rect class="cls-2" x="46.6" y="29.46" width="1.04" height="1.02"/><rect class="cls-2" x="45.04" y="29.46" width="1.04" height="1.02"/><rect class="cls-2" x="45.04" y="31.01" width="1.04" height="1.92"/><rect class="cls-2" x="46.6" y="31.01" width="1.04" height="1.92"/><rect class="cls-2" x="45.04" y="40.72" width="1.04" height="1.45"/><rect class="cls-2" x="46.6" y="40.72" width="1.04" height="1.45"/><rect class="cls-2" x="46.6" y="34.74" width="1.04" height="1.82"/><rect class="cls-2" x="45.04" y="34.74" width="1.04" height="1.82"/><rect class="cls-2" x="46.6" y="37.08" width="1.04" height="1.82"/><rect class="cls-2" x="45.04" y="37.08" width="1.04" height="1.82"/><rect class="cls-2" x="41.46" y="29.46" width="1.04" height="1.02"/><rect class="cls-2" x="39.91" y="29.46" width="1.04" height="1.02"/><rect class="cls-2" x="39.91" y="31.01" width="1.04" height="1.92"/><rect class="cls-2" x="41.46" y="31.01" width="1.04" height="1.92"/><rect class="cls-2" x="39.91" y="40.72" width="1.04" height="1.45"/><rect class="cls-2" x="41.46" y="40.72" width="1.04" height="1.45"/><rect class="cls-2" x="41.46" y="34.74" width="1.04" height="1.82"/><rect class="cls-2" x="39.91" y="34.74" width="1.04" height="1.82"/><rect class="cls-2" x="41.46" y="37.08" width="1.04" height="1.82"/><rect class="cls-2" x="39.91" y="37.08" width="1.04" height="1.82"/><rect class="cls-2" x="36.32" y="29.46" width="1.04" height="1.02"/><rect class="cls-2" x="34.77" y="29.46" width="1.04" height="1.02"/><rect class="cls-2" x="34.77" y="31.01" width="1.04" height="1.92"/><rect class="cls-2" x="36.32" y="31.01" width="1.04" height="1.92"/><rect class="cls-2" x="34.77" y="40.72" width="1.04" height="1.45"/><rect class="cls-2" x="36.32" y="40.72" width="1.04" height="1.45"/><rect class="cls-2" x="36.32" y="34.74" width="1.04" height="1.82"/><rect class="cls-2" x="34.77" y="34.74" width="1.04" height="1.82"/><rect class="cls-2" x="36.32" y="37.08" width="1.04" height="1.82"/><rect class="cls-2" x="34.77" y="37.08" width="1.04" height="1.82"/><rect class="cls-3" x="39.91" y="25.31" width="1.04" height="0.78"/><rect class="cls-3" x="41.46" y="25.31" width="1.04" height="0.78"/><rect class="cls-3" x="41.46" y="26.61" width="1.04" height="0.78"/><rect class="cls-3" x="39.91" y="26.61" width="1.04" height="0.78"/><polygon class="cls-3" points="41.21 23.76 39.43 24.34 39.43 24.79 41.21 24.19 42.99 24.79 42.99 24.34 41.28 23.76 41.21 23.76"/><polygon class="cls-2" points="83.29 12.71 84.61 12.71 84.61 1.59 88.42 1.59 88.42 0.4 79.48 0.4 79.48 1.59 83.29 1.59 83.29 12.71"/><polygon class="cls-2" points="106.23 12.71 107.55 12.71 107.55 1.59 111.36 1.59 111.36 0.4 102.42 0.4 102.42 1.59 106.23 1.59 106.23 12.71"/><polygon class="cls-2" points="123.2 11.52 116.92 11.52 116.92 6.98 123.02 6.98 123.02 5.79 116.92 5.79 116.92 1.59 123.19 1.59 123.19 0.4 115.58 0.4 115.58 12.71 123.2 12.71 123.2 11.52"/><path class="cls-2" d="M92.76,9.08h5.58l1.24,3.63h1.36L96.74,0.4h-2.4L90.15,12.71h1.37Zm2.55-7.53h0.43l2.18,6.37H93.13Z" transform="translate(0 0)"/><polygon class="cls-2" points="129.19 1.59 129.53 1.59 135.58 12.75 138.08 12.75 138.08 0.4 136.78 0.4 136.73 0.4 136.73 11.59 136.44 11.59 130.35 0.43 127.89 0.43 127.89 12.74 129.19 12.74 129.19 1.59"/><path class="cls-2" d="M71.76,7.09H72.4c1.89,0,2.87,0,2.87,2.08s-0.75,2.44-3.44,2.44c-1.62,0-3.85-.17-3.85-0.17v1.15s2,0.18,4,.18c2.76,0,4.76-.31,4.76-3.65s-2.25-3.32-4.6-3.35H71.58c-1.9,0-2.82-.1-2.82-2s0.75-2.44,3.43-2.44c1.62,0,3.66.16,3.66,0.16V0.34S74,0.16,72,.16c-2.75,0-4.73.32-4.73,3.63S69.49,7.06,71.76,7.09Z" transform="translate(0 0)"/><path class="cls-2" d="M147.08,11.59c-1.62,0-3.86-.17-3.86-0.17v1.15s2,0.18,4,.18c2.71,0,4.71-.29,4.71-3.63s-2.25-3.32-4.6-3.35h-0.57c-1.9,0-2.83-.1-2.83-2s0.75-2.44,3.43-2.44c1.62,0,3.66.16,3.66,0.16V0.34s-1.83-.18-3.82-0.18c-2.75,0-4.73.32-4.73,3.63s2.19,3.27,4.46,3.3h0.64c1.89,0,2.87,0,2.87,2.08S149.73,11.59,147.08,11.59Z" transform="translate(0 0)"/><path class="cls-2" d="M116.37,21.9h-1.29v6.39c0,2,0,3-.36,3.68s-1.29,1.09-2.71,1.09-2.34-.37-2.74-1.09C109,31.41,109,30.52,109,28.9v-7h-1.32v6.63a12.84,12.84,0,0,0,.29,3.67c0.38,1,1.4,2.15,4.09,2.15,1.87,0,3.08-.53,3.79-1.66a6.92,6.92,0,0,0,.55-3.53V21.9Z" transform="translate(0 0)"/><polygon class="cls-2" points="81.48 34.21 89.08 34.21 89.08 33.02 82.8 33.02 82.8 28.48 88.9 28.48 88.9 27.29 82.8 27.29 82.8 23.09 89.08 23.09 89.08 21.9 81.48 21.9 81.48 34.21"/><polygon class="cls-2" points="132.98 23.05 132.98 34.21 134.27 34.21 134.27 21.9 131.81 21.9 131.8 21.9 128.08 30.97 127.71 30.97 124 21.9 121.54 21.9 121.54 34.21 122.83 34.21 122.83 23.05 123.14 23.05 126.83 32.12 128.99 32.12 132.68 23.05 132.98 23.05"/><path class="cls-2" d="M103.65,34.2h0l-2.82-5.79,0.25-.08c0.49-.19,1.64-0.72,1.64-3a3.57,3.57,0,0,0-.8-2.66c-0.79-.8-2.06-0.79-3.53-0.79H94.27V34.2h1.32V28.59h3.89l2.72,5.61h1.45Zm-5-6.79H95.59V23.07h2.82c1.16,0,2.08,0,2.57.48a2.5,2.5,0,0,1,.48,1.74h0A2.45,2.45,0,0,1,101,27,3.46,3.46,0,0,1,98.66,27.41Z" transform="translate(0 0)"/><path class="cls-2" d="M76.77,30.59c0-3.27-2.25-3.32-4.6-3.35H71.6c-1.9,0-2.82-.1-2.82-2s0.75-2.45,3.43-2.45c1.62,0,3.66.17,3.66,0.17V21.81S74,21.63,72,21.63c-2.75,0-4.73.32-4.73,3.63s2.19,3.26,4.46,3.3h0.64c1.89,0,2.87,0,2.87,2.08s-0.75,2.44-3.44,2.44c-1.62,0-3.86-.17-3.86-0.17v1.15s2,0.18,4,.18C74.77,34.28,76.77,34,76.77,30.59Z" transform="translate(0 0)"/><polygon class="cls-2" points="84.5 54.84 84.21 54.84 78.08 43.68 75.62 43.68 75.62 55.99 76.92 55.99 76.92 44.84 77.27 44.84 83.33 56 85.77 56 85.77 43.68 84.5 43.68 84.5 54.84"/><rect class="cls-2" x="68.68" y="43.69" width="1.32" height="12.31"/><polygon class="cls-2" points="100.6 44.87 104.41 44.87 104.41 55.99 105.73 55.99 105.73 44.87 109.54 44.87 109.54 43.68 100.6 43.68 100.6 44.87"/><rect class="cls-2" x="113.75" y="43.69" width="1.32" height="12.31"/><polygon class="cls-2" points="119.42 44.87 123.23 44.87 123.23 55.99 124.55 55.99 124.55 44.87 128.36 44.87 128.36 43.68 119.42 43.68 119.42 44.87"/><path class="cls-2" d="M141.22,43.69H139.9v6.39c0,2,0,3-.36,3.68s-1.29,1.09-2.7,1.09-2.34-.37-2.74-1.09a7.14,7.14,0,0,1-.3-3.07v-7h-1.32v6.63a12.92,12.92,0,0,0,.28,3.68c0.38,1,1.4,2.15,4.09,2.15,1.87,0,3.08-.53,3.79-1.66a6.89,6.89,0,0,0,.58-3.54V43.69Z" transform="translate(0 0)"/><polygon class="cls-2" points="145.32 43.68 145.32 44.87 149.13 44.87 149.13 55.99 150.45 55.99 150.45 44.87 154.26 44.87 154.26 43.68 145.32 43.68"/><path class="cls-2" d="M94.42,49H93.85C92,49,91,48.94,91,47s0.75-2.44,3.44-2.44c1.62,0,3.66.17,3.66,0.17V43.62s-1.83-.18-3.82-0.18c-2.75,0-4.73.32-4.73,3.63s2.19,3.27,4.46,3.3h0.64c1.89,0,2.87,0,2.87,2.08S96.8,54.9,94.11,54.9c-1.62,0-3.86-.17-3.86-0.17v1.15s2,0.18,4,.18C97,56.07,99,55.74,99,52.4S96.77,49.08,94.42,49Z" transform="translate(0 0)"/></svg>